<svg xmlns="http://www.w3.org/2000/svg" viewBox="0 0 600 420">
<defs>
  <radialGradient id="halo"><stop stop-color="#f6e6c5"/><stop offset="1" stop-color="#e8d5ac" stop-opacity=".18"/></radialGradient>
  <linearGradient id="leaf-dark" x1="0" y1="0" x2="0" y2="1"><stop stop-color="#789688"/><stop offset="1" stop-color="#315c50"/></linearGradient>
  <linearGradient id="leaf-mid" x1="0" y1="0" x2="1" y2="1"><stop stop-color="#91aa91"/><stop offset="1" stop-color="#4e765e"/></linearGradient>
  <linearGradient id="shoot" x1="0" y1="0" x2="0" y2="1"><stop stop-color="#a9bd91"/><stop offset="1" stop-color="#62835e"/></linearGradient>
  <linearGradient id="gold" x1="0" y1="0" x2="1" y2="1"><stop stop-color="#edca78"/><stop offset="1" stop-color="#b77a2e"/></linearGradient>
</defs>
<g id="background">
  <rect width="600" height="420" rx="28" fill="#fbf6ed"/>
  <circle cx="300" cy="205" r="153" fill="url(#halo)"/>
</g>
<g id="protective-leaves" stroke="#f4eee5" stroke-width="2" stroke-linejoin="round">
  <path d="M287 331C173 318 105 249 91 143c95 2 170 59 205 165-1 10-4 18-9 23Z" fill="url(#leaf-dark)"/>
  <path d="M313 331c114-13 182-82 196-188-95 2-170 59-205 165 1 10 4 18 9 23Z" fill="url(#leaf-dark)"/>
  <path d="M262 318c-73-15-119-60-134-127 69 3 120 44 145 115-1 6-4 10-11 12Z" fill="url(#leaf-mid)" opacity=".9"/>
  <path d="M338 318c73-15 119-60 134-127-69 3-120 44-145 115 1 6 4 10 11 12Z" fill="url(#leaf-mid)" opacity=".9"/>
</g>
<g id="leaf-veins" fill="none" stroke="#dfe9e2" stroke-width="2" stroke-linecap="round" opacity=".78">
  <path d="M112 164c69 48 123 97 174 157"/><path d="M488 164c-69 48-123 97-174 157"/><path d="M148 208c48 34 83 69 113 103"/><path d="M452 208c-48 34-83 69-113 103"/>
</g>
<g id="central-shoot" stroke="#f4eee5" stroke-width="2" stroke-linejoin="round">
  <path d="M300 345c-2-45-1-85 2-119" fill="none" stroke="#54745b" stroke-width="7" stroke-linecap="round"/>
  <path d="M299 282c-42-7-68-32-73-71 44-2 75 21 83 61-2 6-5 9-10 10Z" fill="url(#shoot)"/>
  <path d="M304 257c34-8 55-30 58-62-36-1-61 19-68 52 2 5 5 8 10 10Z" fill="url(#shoot)"/>
</g>
<circle id="gold-bud" cx="303" cy="205" r="15" fill="url(#gold)"/>
<ellipse cx="300" cy="357" rx="207" ry="17" fill="#416d5b" opacity=".17"/>
</svg>
