<svg xmlns="http://www.w3.org/2000/svg" viewBox="0 0 600 420">
<defs>
 <linearGradient id="t-sky" x1="0" y1="0" x2="0" y2="1"><stop stop-color="#dbe6e3"/><stop offset="1" stop-color="#f2e7d3"/></linearGradient>
 <linearGradient id="t-bridge" x1="0" y1="0" x2="1" y2="0"><stop stop-color="#b6782f"/><stop offset="1" stop-color="#d7aa57"/></linearGradient>
</defs>
<rect width="600" height="420" rx="28" fill="#fbf6ed"/>
<path d="M49 50h502v317H49Z" rx="130" fill="url(#t-sky)"/>
<path d="M49 289c64-72 127-88 190-48l-15 126H49Z" fill="#587363"/>
<path d="M551 279c-67-45-126-50-178-17l12 105h166Z" fill="#6f8872" opacity=".72"/>
<path d="M186 281q114-94 228 0" fill="none" stroke="#705135" stroke-width="25" stroke-linecap="round"/>
<path d="M186 281q114-94 228 0" fill="none" stroke="url(#t-bridge)" stroke-width="15" stroke-dasharray="24 7" stroke-linecap="round"/>
<path d="M188 280v71M412 280v71" stroke="#705135" stroke-width="9" stroke-linecap="round"/>
<path d="M365 124c44-9 83 2 117 34-35 33-74 43-117 30-22-22-22-43 0-64Z" fill="#f4ead7" opacity=".78"/>
<circle cx="258" cy="226" r="11" fill="#c46f54"/>
</svg>
